# xmcd
#
# Track frame offsets:
#	150
#	11352
#	23080
#	35682
#	52445
#	72567
#	83462
#	101775
#	114237
#	126487
#	138760
#	153790
#
# Disc length: 2264 seconds
#
# Revision: 0
# Processed by: cddbd v1.5PL3 Copyright (c) Steve Scherf et al.
# Submitted via: dBpowerAMP V4.0
#
DISCID=9b08d60c
DTITLE=Various Artist - Under The Texas Sky
DYEAR=1900
DGENRE=Country
TTITLE0=Johnny Gimble/Texas Highways
TTITLE1=Cox Family/Cowboy's Dream
TTITLE2=Tish Hinojosa/In The Real West
TTITLE3=Nanci Griffith/West Texas Sun
TTITLE4=Tom Russell/El Llano Estacado
TTITLE5=Joe Carr and Alan Munde/Texas Blues
TTITLE6=Laurie Lewis/The Cowboy's Song
TTITLE7=Riders In The Sky/Blue Bonnet Lady
TTITLE8=Wylie and The Wild West/Sage and Sand
TTITLE9=Kimberly M'Carver/Texas Home
TTITLE10=Wylie and The Wild West/Jingle, Jangle, Jingle
TTITLE11=Riders In The Sky/When The Bloom Is On The Sage
EXTD=from Texas Highways Magazine
EXTT0=
EXTT1=
EXTT2=
EXTT3=
EXTT4=
EXTT5=
EXTT6=
EXTT7=
EXTT8=
EXTT9=
EXTT10=
EXTT11=
PLAYORDER=
